# This file uses millimeters as units for non-parametric coordinates.

mtllib Lowpoly.mtl
g default
v 0.029348 0.599516 0.128344
v 0.029348 0.296891 0.128344
v 0.029348 0.599516 -0.123451
v 0.029348 0.296891 -0.123451
v 0.040872 0.599516 0.128344
v 0.040872 0.296891 0.128344
v 0.040872 0.599516 -0.123451
v 0.040872 0.296891 -0.123451
v 0.034522 0.580393 0.112432
v 0.034522 0.580393 -0.107539
v 0.034522 0.316015 -0.107539
v 0.034522 0.316015 0.112432
v 0.037783 0.578609 0.110948
v 0.039178 0.576982 0.109594
v 0.038576 0.575229 0.108136
v 0.036720 0.574448 0.107486
v 0.036720 0.321959 0.107486
v 0.038576 0.321178 0.108136
v 0.039178 0.319425 0.109594
v 0.037783 0.317798 0.110948
v 0.037783 0.578609 -0.106055
v 0.039178 0.576982 -0.104701
v 0.038576 0.575229 -0.103243
v 0.036720 0.574448 -0.102593
v 0.036720 0.321959 -0.102593
v 0.038576 0.321178 -0.103243
v 0.039178 0.319425 -0.104701
v 0.037783 0.317798 -0.106055
v 0.040872 0.583614 0.115113
v 0.040872 0.312793 0.115113
v 0.040872 0.312793 -0.110220
v 0.040872 0.583614 -0.110220
v 0.015349 0.574448 0.107486
v 0.015349 0.321959 0.107486
v 0.015349 0.321959 -0.102593
v 0.015349 0.574448 -0.102593
vt 0.472380 0.013328
vt 0.060618 0.013413
vt 0.055597 0.000087
vt 0.477396 0.000000
vt 0.060646 0.602478
vt 0.472405 0.602441
vt 0.477425 0.615768
vt 0.055628 0.615806
vt 0.553414 0.000000
vt 0.980661 0.000071
vt 0.980629 0.019617
vt 0.553439 0.019546
vt 0.978487 0.547731
vt 0.555405 0.547660
vt 0.555407 0.528299
vt 0.978492 0.528370
vt 0.069879 0.031615
vt 0.463123 0.031542
vt 0.463126 0.071554
vt 0.069882 0.071616
vt 0.068662 0.027845
vt 0.464340 0.027771
vt 0.065932 0.024378
vt 0.467069 0.024301
vt 0.469602 0.020289
vt 0.063397 0.020368
vt 0.063423 0.595519
vt 0.469626 0.595483
vt 0.065957 0.591508
vt 0.467092 0.591473
vt 0.069903 0.584267
vt 0.463145 0.584235
vt 0.464362 0.588005
vt 0.068686 0.588038
vt 0.069897 0.544256
vt 0.463147 0.544233
vt 0.956325 0.501589
vt 0.958226 0.046388
vt 0.575832 0.046324
vt 0.577582 0.501525
vt 0.520134 0.555363
vt 0.520113 0.060419
vt 0.533015 0.054387
vt 0.533036 0.561394
vt 0.012901 0.060495
vt 0.012913 0.555382
vt 0.000012 0.561413
vt 0.000000 0.054464
vt 1.000000 0.019705
vt 0.997859 0.528447
vt 0.536039 0.528370
vt 0.534067 0.019626
vt 0.503153 0.544235
vt 0.503133 0.071549
vt 0.506815 0.070086
vt 0.506835 0.545698
vt 0.509768 0.066805
vt 0.509788 0.548979
vt 0.513406 0.063759
vt 0.513426 0.552024
vt 0.029893 0.544254
vt 0.029880 0.071621
vt 0.026211 0.545716
vt 0.026198 0.070159
vt 0.023258 0.548997
vt 0.023245 0.066879
vt 0.019608 0.063834
vt 0.019620 0.552042
vn 1.000000 0.000000 0.000000
vn 1.000000 0.000000 0.000000
vn 1.000000 0.000000 0.000000
vn 1.000000 0.000000 0.000000
vn 0.388979 0.000000 -0.921247
vn 0.388979 0.000000 -0.921247
vn 0.388979 0.000000 -0.921247
vn 0.388979 0.000000 -0.921247
vn 0.452526 -0.891751 0.000000
vn 0.452526 -0.891751 0.000000
vn 0.452526 -0.891751 0.000000
vn 0.452526 -0.891751 0.000000
vn 0.452532 0.891748 0.000000
vn 0.452532 0.891748 0.000000
vn 0.452532 0.891748 0.000000
vn 0.452532 0.891748 0.000000
vn 0.388978 0.000000 0.921247
vn 0.388978 0.000000 0.921247
vn 0.388978 0.000000 0.921247
vn 0.388978 0.000000 0.921247
vn 0.000000 0.000000 1.000000
vn 0.000000 0.000000 1.000000
vn 0.000000 0.000000 1.000000
vn 0.000000 0.000000 1.000000
vn 0.000000 1.000000 0.000000
vn 0.000000 1.000000 0.000000
vn 0.000000 1.000000 0.000000
vn 0.000000 1.000000 0.000000
vn 0.000000 -1.000000 0.000000
vn 0.000000 -1.000000 0.000000
vn 0.000000 -1.000000 0.000000
vn 0.000000 -1.000000 0.000000
vn 0.000000 0.000000 -1.000000
vn 0.000000 0.000000 -1.000000
vn 0.000000 0.000000 -1.000000
vn 0.000000 0.000000 -1.000000
vn 0.034155 0.000000 -0.999417
vn 0.034155 0.000000 -0.999417
vn 0.761667 0.000000 -0.647969
vn 0.869437 0.316916 -0.379003
vn 0.924412 0.000000 -0.381396
vn 0.966707 0.183281 -0.178569
vn 0.696575 -0.000000 0.717484
vn 0.696575 -0.000000 0.717484
vn 0.471281 -0.000000 0.881983
vn 0.471280 -0.000000 0.881984
vn 0.039788 -0.999208 0.000000
vn 0.039788 -0.999208 0.000000
vn 0.000003 -1.000000 0.000000
vn 0.000003 -1.000000 0.000000
vn 0.034155 0.000000 0.999417
vn 0.034155 0.000000 0.999417
vn 0.000000 0.000000 1.000000
vn 0.000000 0.000000 1.000000
vn 0.549649 0.835396 0.000000
vn 0.549649 0.835396 0.000000
vn 0.479926 0.877309 0.000000
vn 0.479926 0.877309 0.000000
vn 0.471282 -0.000000 -0.881983
vn 0.471282 -0.000000 -0.881983
vn 0.414264 0.000000 -0.910157
vn 0.414264 0.000000 -0.910157
vn 0.549643 -0.835400 0.000000
vn 0.549643 -0.835400 0.000000
vn 0.479914 -0.877315 0.000000
vn 0.479914 -0.877315 0.000000
vn 0.414263 0.000000 0.910157
vn 0.414263 0.000000 0.910157
vn 0.800941 -0.598744 0.000000
vn 0.800941 -0.598744 0.000000
vn 0.945822 -0.324685 0.000000
vn 0.945822 -0.324685 0.000000
vn 0.759309 0.650730 0.000000
vn 0.759309 0.650730 0.000000
vn 0.759315 -0.650723 0.000000
vn 0.759315 -0.650723 0.000000
vn 0.869437 0.316917 0.379003
vn 0.966706 0.183280 0.178569
vn 0.039784 0.999208 0.000000
vn 0.039784 0.999208 0.000000
vn 0.696576 -0.000000 -0.717483
vn 0.696576 -0.000000 -0.717483
vn 0.924411 0.000000 0.381397
vn 0.761667 0.000000 0.647969
vn 1.000000 0.000003 -0.000004
vn 1.000000 -0.000003 -0.000004
vn 1.000000 -0.000003 -0.000003
vn 1.000000 0.000003 -0.000003
vn 1.000000 0.000003 0.000004
vn 1.000000 0.000003 0.000003
vn 1.000000 -0.000003 0.000004
vn 1.000000 -0.000003 0.000003
vn 0.000000 0.000000 -1.000000
vn 0.000000 0.000000 -1.000000
vn 0.000000 1.000000 0.000000
vn 0.000000 1.000000 0.000000
s off
g pPlane1
usemtl lambert2SG
f 33/19/1 34/36/2 35/35/3 36/20/4
usemtl lambert3SG
f 12/41/5 9/42/6 29/43/7 30/44/8
f 9/1/9 10/2/10 32/3/11 29/4/12
f 11/5/13 12/6/14 30/7/15 31/8/16
f 10/45/17 11/46/18 31/47/19 32/48/20
f 1/49/21 2/50/22 6/16/23 5/11/24
f 3/9/25 1/10/26 5/11/27 7/12/28
f 2/13/29 4/14/30 8/15/31 6/16/32
f 4/51/33 3/52/34 7/12/35 8/15/36
s 1
f 17/53/37 16/54/38 15/55/39 18/56/40
f 18/56/40 15/55/39 14/57/41 19/58/42
s 2
f 19/58/43 14/57/44 13/59/45 20/60/46
s 3
f 24/17/47 16/18/48 33/19/49 36/20/50
s 1
f 25/61/51 24/62/52 36/20/53 35/35/54
s 5
f 13/25/55 21/26/56 10/2/57 9/1/58
s 6
f 21/67/59 28/68/60 11/46/61 10/45/62
s 7
f 28/27/63 20/28/64 12/6/65 11/5/66
s 2
f 20/60/46 13/59/45 9/42/67 12/41/68
s 3
f 23/21/69 15/22/70 16/18/48 24/17/47
f 22/23/71 14/24/72 15/22/70 23/21/69
s 5
f 21/26/56 13/25/55 14/24/73 22/23/74
s 7
f 27/29/75 19/30/76 20/28/64 28/27/63
s 1
f 26/34/77 18/33/40 19/30/42 27/29/78
f 25/31/79 17/32/80 18/33/40 26/34/77
s 6
f 27/65/81 28/68/60 21/67/59 22/66/82
s 1
f 26/63/77 27/65/78 22/66/83 23/64/84
f 25/61/51 26/63/77 23/64/84 24/62/52
s 8
f 30/37/85 29/38/86 5/11/87 6/16/88
f 31/40/89 30/37/85 6/16/88 8/15/90
f 32/39/91 31/40/89 8/15/90 7/12/92
f 29/38/86 32/39/91 7/12/92 5/11/87
s 1
f 17/53/37 34/36/93 33/19/94 16/54/38
f 25/31/79 35/35/95 34/36/96 17/32/80
